# xmcd CD database file
#
# Track frame offsets:
#	150
#	21345
#	38510
#	53534
#	71469
#	99494
#	111685
#	122473
#	134775
#	151570
#	162370
#	176753
#	191242
#	209678
#	226204
#
# Disc length: 3108 seconds
#
# Revision: 0
# Processed by: cddbd v1.5.2PL0 Copyright (c) Steve Scherf et al.
# Submitted via: CDex 1.51
#
DISCID=d00c220f
DTITLE=Johnny Cash and Willie Nelson - VH1 Storytellers
DYEAR=1998
DGENRE=Country
TTITLE0=Johnny Cash and Willie Nelson - Ghost Riders In The Sky [Stan Jones]
TTITLE1=Johnny Cash - Worried Man
TTITLE2=Willie Nelson - Family Bible [Breeland, Buskirk, Gray]
TTITLE3=Johnny Cash - Don't Take Your Guns To Town
TTITLE4=Willie Nelson - Funny How Time Slips Away
TTITLE5=Johnny Cash - Flesh And Blood
TTITLE6=Willie Nelson - Crazy
TTITLE7=Johnny Cash - Unchained [Jude Johnstone]
TTITLE8=Willie Nelson - Night Life
TTITLE9=Johnny Cash - Drive On
TTITLE10=Willie Nelson - Me And Paul
TTITLE11=Johnny Cash - I Still Miss Someone
TTITLE12=Willie Nelson - Always On My Mind [Christopher, James, Thompson]
TTITLE13=Johnny Cash - Folsom Prison Blues
TTITLE14=Willie Nelson - On The Road Again
EXTD=YEAR: 1998
EXTT0=
EXTT1=
EXTT2=
EXTT3=
EXTT4=
EXTT5=
EXTT6=
EXTT7=
EXTT8=
EXTT9=
EXTT10=
EXTT11=
EXTT12=
EXTT13=
EXTT14=
PLAYORDER=
